<svg id="SvgjsSvg1001" width="288" height="288" xmlns="http://www.w3.org/2000/svg" version="1.1" xmlns:xlink="http://www.w3.org/1999/xlink" xmlns:svgjs="http://svgjs.com/svgjs"><defs id="SvgjsDefs1002"></defs><g id="SvgjsG1008"><svg xmlns="http://www.w3.org/2000/svg" viewBox="0 0 24 24" width="288" height="288"><path fill="#87ceeb" d="M5.89 2.011C2.345 4.344.39 7.874.255 11.707.052 18.378 5.286 24 12.023 24l.001-.003c6.892 0 11.821-5.022 11.724-12.067-.077-5.825-3.198-8.142-5.62-9.908 0 0-.334-.131-.039.135 0 0 5.475 6.439.508 10.886 0 0-2.674 2.293-4.242.135-1.339-1.833-.793-4.78-.029-6.159 0 0 .871-1.5 2.196-1.93L15.143 3.55s-1.436.789-2.104 1.901c0 0 .068-1.635 1.06-3.028L11.956 0 9.799 2.453s1.098 1.539 1.06 2.971c0 0-.909-1.364-2.089-1.872L7.376 5.09s1.726.736 2.21 1.94c0 0 1.891 3.668.029 6.092 0 0-1.945 2.274-4.353-.121-4.701-4.673.401-10.686.682-10.952.038-.067-.039-.038-.054-.038z" class="colorF31001 svgShape"></path></svg></g></svg>